<svg xmlns="http://www.w3.org/2000/svg" xmlns:xlink="http://www.w3.org/1999/xlink" data-from="Hcode" width="512" height="512" viewBox="0 0 512 512"><defs><linearGradient id="a" y1="0.5" x2="1" y2="0.5" gradientUnits="objectBoundingBox"><stop offset="0.26" stop-color="#306bb3"/><stop offset="0.379" stop-color="#3066ac"/><stop offset="0.539" stop-color="#2f5899"/><stop offset="0.721" stop-color="#2d427e"/><stop offset="0.92" stop-color="#262a5e"/><stop offset="1" stop-color="#232152"/></linearGradient></defs><g transform="translate(-26.44 -26.44)"><rect width="512" height="512" transform="translate(26.44 26.44)" fill="#191816"/><g transform="translate(120.425 224.991)"><path d="M252,426" transform="translate(-123.881 -248.66)" fill="#191816"/><g transform="translate(0 7.619)"><path d="M152.177,272.968q10.553,0,14.071,3.9t1.679,13.381q-1.922,9.877-7.406,14.1t-16.687,4.225H132.565l6.92-35.583h12.692ZM107.04,344.584h18.525l4.393-22.608h15.865q10.5,0,17.279-2.21a32.659,32.659,0,0,0,12.329-7.4,36.926,36.926,0,0,0,11.631-20.823q2.943-15.113-4.437-23.554t-23.448-8.432H123.559L107.04,344.584" transform="translate(-107.04 -236.943)" fill="#6572b0" stroke="#fff" stroke-linecap="round" stroke-linejoin="round" stroke-miterlimit="18" stroke-width="10"/><path d="M210.808,233.97h18.375l-4.393,22.608h16.368q15.458,0,21.318,5.391t3.518,17.464L258.3,319H239.638l7.309-37.624q1.246-6.417-.919-8.759t-9.218-2.333H222.121L212.655,319H194.28l16.528-85.033" transform="translate(-117.175 -233.97)" fill="#6572b0" stroke="#fff" stroke-linecap="round" stroke-linejoin="round" stroke-miterlimit="18" stroke-width="10"/><path d="M315.757,272.968q10.553,0,14.071,3.9t1.679,13.381q-1.922,9.877-7.406,14.1t-16.687,4.225H296.145l6.92-35.583h12.692ZM270.62,344.584h18.525l4.393-22.608H309.4q10.5,0,17.279-2.21a32.66,32.66,0,0,0,12.329-7.4,36.926,36.926,0,0,0,11.631-20.823q2.943-15.113-4.428-23.554t-23.448-8.432H287.148L270.62,344.584" transform="translate(-126.044 -236.943)" fill="#6572b0" stroke="#fff" stroke-linecap="round" stroke-linejoin="round" stroke-miterlimit="18" stroke-width="10"/></g><g transform="translate(222.438 0)"><path d="M388.911,343.587a31.025,31.025,0,0,1-16.147-4.534c-.035-.018-.194-.124-.194-.124a.675.675,0,0,1-.1-.071c-8.069-6.081-12.117-14.7-11.092-23.651,1.317-11.552,10.571-21.963,25.392-28.565a1.019,1.019,0,0,0,.1-.044,150.379,150.379,0,0,0,18.065-8.52c-7.362-16.377-14.99-34.416-6-44.8.035-.035.212-.221.212-.221a1.409,1.409,0,0,0,.115-.115c3.88-3.376,7.848-5.091,11.8-5.091,11.145,0,17.146,13.514,17.394,14.088l.2.46a11.908,11.908,0,0,0-.716-1.7l-4.49-8.158a2.212,2.212,0,0,1,.645-2.864,2.242,2.242,0,0,1,1.29-.415,2.213,2.213,0,0,1,1.626.716l6.3,6.885c.4.433,9.66,10.721,7.937,22.573-2.068,12.223-10.411,20.841-17.031,26.462,2.466,7.38,4.746,16.784,2.7,26.453a.735.735,0,0,1-.035.133,22.943,22.943,0,0,1-6.691,10.668,2.348,2.348,0,0,1,.689-.115,2.21,2.21,0,0,1,1.476,3.854l-6.761,6.09C415.125,333.414,403.679,343.587,388.911,343.587Zm-1.078-19.559c2.254,4.6,5.948,6.841,11.269,6.841h.08a2.21,2.21,0,0,1,.76-2.43l5.073-3.88c.062-.053,7.327-5.763,9.457-13.761,1.184-4.437-.513-10.677-2.342-15.759q-1.564,1.087-3.1,2.148l-.071.053C395.628,306.458,385.084,313.749,387.832,324.028Zm25.649-79.907c-3.35,5.913.035,14.954,4.384,25.472a44.878,44.878,0,0,0,8.785-8.856A23.381,23.381,0,0,0,429.6,252.3h-.018a2.214,2.214,0,0,1-1.706-.8l-5.038-6.116c-.822-.981-3.509-3.562-5.9-3.562C415.752,241.814,414.586,242.592,413.481,244.121Z" transform="translate(-359.008 -225.64)" fill="#6572b0"/><path d="M410.777,229.769c9.722,0,15.14,12.241,15.361,12.762l3.146,7.265-5.038-6.116c-.035-.044-3.65-4.366-7.6-4.366-1.962,0-3.756,1.114-5.321,3.323-4.216,7.256.1,17.65,5.091,29.67l.2.495a50.772,50.772,0,0,0,11.587-11.154c6.912-11.958,1.441-22.175,1.379-22.281l-4.508-8.175,6.3,6.885c.362.4,8.953,9.917,7.38,20.761-2.033,12-10.756,20.558-17.429,26.055,2.59,7.46,5.153,17.093,3.12,26.718-3.252,11.764-16.819,16.183-17.4,16.368l-6.09,1.927,5.073-3.88c.08-.062,7.9-6.134,10.244-14.954,1.5-5.621-.9-13.346-3.412-19.771-1.838,1.308-3.694,2.59-5.489,3.836-13.567,9.386-25.286,17.5-21.945,29.387,2.616,5.489,7.106,8.273,13.346,8.273,7,0,13.69-3.518,13.761-3.553l8.034-4.278-6.761,6.09c-.46.407-11.3,10.04-25.216,10.04a28.851,28.851,0,0,1-15.016-4.225l-.1-.062c-7.424-5.595-11.154-13.478-10.226-21.636,1.22-10.756,10-20.522,24.093-26.789a151.053,151.053,0,0,0,20.107-9.66l-.018-.035c-7.292-16.183-15.555-34.531-7.15-44.244l.115-.115c3.491-3.031,6.973-4.561,10.376-4.561m0-4.419c-4.5,0-8.953,1.891-13.249,5.63-.08.071-.159.141-.239.221l-.115.115a2.409,2.409,0,0,0-.2.221c-9.537,11.03-2.51,28.857,4.817,45.3a148.083,148.083,0,0,1-15.962,7.4c-.009,0-.044.018-.053.018-.062.027-.133.053-.194.08-15.555,6.929-25.286,17.977-26.692,30.333-1.114,9.749,3.253,19.108,11.958,25.666.062.044.124.088.194.133l.1.062c.062.044.124.079.194.124a33.2,33.2,0,0,0,17.288,4.852c15.6,0,27.673-10.721,28.176-11.172l6.761-6.09a4.412,4.412,0,0,0,.663-5.816,4.67,4.67,0,0,0-.371-.46,24.36,24.36,0,0,0,4.879-9.183c.027-.088.044-.177.062-.265,2.024-9.563.053-18.772-2.307-26.2,6.682-5.86,14.583-14.574,16.642-26.753.009-.035.009-.071.018-.106,1.838-12.656-7.433-23.218-8.494-24.376l-6.311-6.885a4.413,4.413,0,0,0-7.124.857,17.008,17.008,0,0,0-10.438-3.7Zm4.278,19.674c.6-.8,1.2-1.29,1.6-1.29,1.193,0,3.253,1.653,4.216,2.793l5.011,6.081a4.26,4.26,0,0,0,.91.831,21.794,21.794,0,0,1-2.3,5.816,38.969,38.969,0,0,1-6.01,6.425c-3.518-8.706-5.913-16.094-3.429-20.655ZM389.618,322.96c-2.033-8.246,6.425-14.6,20.3-24.2l.088-.062c.221-.159.451-.309.681-.468,1.175,3.783,2.218,8.476,1.352,11.693-1.927,7.256-8.617,12.55-8.688,12.6l-5.047,3.862a4.449,4.449,0,0,0-1.414,1.856,9.05,9.05,0,0,1-7.274-5.285Z" transform="translate(-358.717 -225.35)" fill="#fff"/></g><g transform="translate(226.88 4.41)"><path d="M431.98,238.648l-6.3-6.885,4.508,8.175c.053.106,5.533,10.323-1.379,22.281a50.589,50.589,0,0,1-11.587,11.154l-.2-.495c-4.994-12.02-9.316-22.414-5.091-29.67,1.564-2.2,3.359-3.323,5.321-3.323,3.951,0,7.566,4.322,7.6,4.366l5.038,6.116-3.146-7.265c-.23-.521-5.639-12.762-15.361-12.762-3.4,0-6.885,1.529-10.35,4.552l-.115.115c-8.405,9.713-.141,28.062,7.15,44.244l.018.035a151.064,151.064,0,0,1-20.107,9.66c-14.088,6.275-22.873,16.041-24.093,26.789-.928,8.158,2.8,16.041,10.226,21.636l.1.062a28.827,28.827,0,0,0,15.016,4.225c13.911,0,24.765-9.625,25.216-10.04l6.761-6.09-8.034,4.278c-.071.035-6.761,3.553-13.761,3.553-6.24,0-10.73-2.784-13.346-8.273-3.341-11.888,8.379-20,21.945-29.387,1.8-1.246,3.65-2.528,5.489-3.836,2.51,6.425,4.914,14.15,3.412,19.771-2.342,8.821-10.164,14.892-10.244,14.954l-5.073,3.88,6.09-1.927c.574-.186,14.15-4.6,17.4-16.368,2.033-9.625-.53-19.259-3.12-26.718,6.673-5.5,15.387-14.053,17.429-26.055C440.942,248.564,432.352,239.046,431.98,238.648Z" transform="translate(-363.742 -230.34)" fill="#191816"/></g><g transform="translate(226.871 5.833)"><path d="M431.979,238.835l-6.3-6.885,4.508,8.175c.053.106,5.533,10.323-1.379,22.281a50.588,50.588,0,0,1-11.587,11.154l-9.165,5.877c-.1-.221-.053-.106,0,0l-.318.23.044-.009-.044.009a152.01,152.01,0,0,1-19.771,9.466c-14.088,6.275-22.873,16.041-24.093,26.789-.928,8.158,2.8,16.041,10.226,21.636l.1.062a28.827,28.827,0,0,0,15.016,4.225c13.911,0,24.765-9.625,25.216-10.04l6.761-6.09-8.034,4.278c-.071.035-6.761,3.553-13.761,3.553-6.24,0-10.73-2.784-13.346-8.273-3.341-11.887,8.379-20,21.945-29.387,1.8-1.246,3.65-2.528,5.489-3.836.009.027.106-.106.115-.071l8.025-5.966c.124-.186.327-.336.318-.371,6.673-5.5,15.387-14.053,17.429-26.055C440.941,248.752,432.35,239.233,431.979,238.835Z" transform="translate(-363.732 -231.95)" fill="url(#a)"/></g><g transform="translate(0 7.619)"><path d="M152.177,272.968q10.553,0,14.071,3.9t1.679,13.381q-1.922,9.877-7.406,14.1t-16.687,4.225H132.565l6.92-35.583h12.692ZM107.04,344.584h18.525l4.393-22.608h15.865q10.5,0,17.279-2.21a32.659,32.659,0,0,0,12.329-7.4,36.926,36.926,0,0,0,11.631-20.823q2.943-15.113-4.437-23.554t-23.448-8.432H123.559L107.04,344.584" transform="translate(-107.04 -236.943)" fill="#191816"/><path d="M210.808,233.97h18.375l-4.393,22.608h16.368q15.458,0,21.318,5.391t3.518,17.464L258.3,319H239.638l7.309-37.624q1.246-6.417-.919-8.759t-9.218-2.333H222.121L212.655,319H194.28l16.528-85.033" transform="translate(-117.175 -233.97)" fill="#191816"/><path d="M315.757,272.968q10.553,0,14.071,3.9t1.679,13.381q-1.922,9.877-7.406,14.1t-16.687,4.225H296.145l6.92-35.583h12.692ZM270.62,344.584h18.525l4.393-22.608H309.4q10.5,0,17.279-2.21a32.66,32.66,0,0,0,12.329-7.4,36.926,36.926,0,0,0,11.631-20.823q2.943-15.113-4.428-23.554t-23.448-8.432H287.148L270.62,344.584" transform="translate(-126.044 -236.943)" fill="#191816"/></g></g></g><!-- https://hcode.com.br --></svg>